<svg width="150" height="150" viewBox="0 0 150 150" fill="none" xmlns="http://www.w3.org/2000/svg">
<path fill-rule="evenodd" clip-rule="evenodd" d="M94.1209 82.2336C92.6209 83.8427 90.6945 84.66 88.3964 84.66C86.0973 84.66 84.1709 83.8427 82.6718 82.2336C81.24 80.7009 80.4173 78.25 80.4173 75.5118C80.4173 72.8391 81.2491 70.4218 82.6964 68.8782C84.2109 67.2691 86.1282 66.4482 88.3945 66.4418C90.6645 66.4482 92.5818 67.2691 94.0955 68.8782C95.5445 70.4218 96.3745 72.8391 96.3745 75.5118C96.3745 78.25 95.5527 80.7009 94.1209 82.2336V82.2336ZM73.9936 75.5118C73.9936 75.6355 73.9991 75.7573 74.0027 75.8791C71.7027 73.7855 68.3773 73.0064 66.3455 72.6C62.5864 71.8073 59.7145 71.0818 59.7145 68.4055C59.7145 66.5173 61.4055 65.1436 64.6536 65.3791C67.6218 65.5945 68.8718 67.4091 69.2145 69.16C69.2636 69.4473 69.3964 69.6564 69.7236 69.6591L75.0618 69.7045C75.0873 69.7045 75.1091 69.7018 75.1318 69.7C74.3791 71.4555 73.9936 73.41 73.9936 75.5118V75.5118ZM64.9145 85.3318C62.3327 85.3318 59.4882 84.4145 58.8327 80.8655C58.7773 80.5264 58.6173 80.3864 58.3573 80.3791L53.1964 80.31V71.1873C53.8745 73.8609 56.1209 75.7118 60.9791 76.8055C64.2309 77.5836 69.8718 78.0782 69.8718 81.4164C69.8718 83.7436 68.1582 85.3864 64.9145 85.3318V85.3318ZM39.2091 84.6636C35.0455 84.6636 31.2309 81.3864 31.2309 75.5155C31.2309 70.9091 34.0909 66.4455 39.2364 66.4455C41.4655 66.4455 47.1173 67.2091 47.1173 75.5155C47.1173 83.8436 41.2164 84.6636 39.2082 84.6636H39.2091ZM102.645 73.2745C103.829 74.8545 105.967 76.0245 109.441 76.8064C112.692 77.5845 118.334 78.0791 118.334 81.4173C118.334 83.7445 116.619 85.3873 113.376 85.3327C110.795 85.3327 107.949 84.4155 107.295 80.8664C107.24 80.5273 107.08 80.3873 106.819 80.38L102.037 80.3164C102.542 78.8282 102.799 77.2164 102.799 75.5127C102.799 74.764 102.747 74.0162 102.645 73.2745V73.2745ZM113.024 89.9782C118.75 89.9782 125.499 87.8464 124.971 80.9318C124.387 74.7936 118 73.2391 114.807 72.6009C111.047 71.8082 108.175 71.0827 108.175 68.4064C108.175 66.5182 109.866 65.1445 113.115 65.38C116.084 65.5955 117.334 67.41 117.676 69.1609C117.725 69.4482 117.859 69.6573 118.185 69.66L123.524 69.7055C123.93 69.7082 124.056 69.4973 124.005 69.2082C122.96 62.81 117.615 61 112.695 61C107.784 61 101.865 62.38 101.445 68.49C101.431 68.7264 101.425 68.9591 101.425 69.1873C100.644 67.5618 99.5164 66.0691 98.0636 64.7473C95.3818 62.3291 92.0382 61.0336 88.3918 61.0018H88.2709C86.5291 61.0018 84.8245 61.3227 83.2036 61.9591C81.556 62.6108 80.0401 63.5554 78.7291 64.7473C77.3536 65.9982 76.2673 67.4018 75.4909 68.9264C74.3345 62.76 69.0782 61 64.2327 61C59.7236 61 54.3655 62.1664 53.1964 67.0909V62.2027C53.1959 61.942 52.9844 61.7309 52.7236 61.7309H47.6964C47.4356 61.7314 47.2245 61.9429 47.2245 62.2036V63.5218C47.2245 63.7436 47.0764 63.8209 46.8955 63.6918C45.1073 62.3945 42.4618 61.0027 39.2782 61.0027C37.4891 61.0027 35.7809 61.3173 34.2 61.9373C32.6182 62.5591 31.1145 63.5055 29.7345 64.7509C28.1636 66.18 26.9673 67.8091 26.1827 69.5927C25.3982 71.3764 25 73.3691 25 75.5145C25 77.5173 25.3527 79.3955 26.0473 81.0927C26.7418 82.79 27.7991 84.36 29.1909 85.76C30.5818 87.16 32.1382 88.2236 33.8136 88.9236C35.4891 89.6209 37.3355 89.9745 39.3045 89.9745C42.6882 89.9745 45.2273 88.5336 46.8909 87.2236C47.0745 87.0836 47.2245 87.1591 47.2245 87.3882V88.7727C47.2245 89.0327 47.4373 89.2455 47.6973 89.2455H52.7245C52.9851 89.2445 53.1959 89.0332 53.1964 88.7727V84.1091C55.5664 89.6818 61.6055 89.9773 64.5618 89.9773C69.5036 89.9773 75.2027 88.3864 76.3336 83.5064C76.8773 84.314 77.4974 85.0675 78.1855 85.7564C80.88 88.4682 84.4109 89.9264 88.4009 89.97H88.5645C90.4591 89.97 92.2873 89.6064 93.9982 88.8873C95.7255 88.1569 97.2918 87.093 98.6073 85.7564C99.5914 84.7753 100.432 83.66 101.104 82.4436C102.895 89.6282 109.797 89.9773 113.024 89.9773V89.9782Z" fill="#F9F9F9"/>
</svg>
