<svg width="150" height="150" viewBox="0 0 150 150" fill="none" xmlns="http://www.w3.org/2000/svg">
<path d="M25 65.1211H29.5728V72.6221H29.6129C30.2948 71.1379 32.1801 70.2154 33.8648 70.2154C38.5179 70.2154 38.8789 73.7452 38.8789 75.8712V85.2174H34.3061V78.1576C34.3061 76.152 34.5066 74.1464 32.0197 74.1464C30.2948 74.1464 29.5327 75.6706 29.5327 77.2751V85.2174H25V65.1211Z" fill="#FF9E18"/>
<path fill-rule="evenodd" clip-rule="evenodd" d="M43.4115 71.1781C42.168 71.9402 41.3257 73.1837 41.2455 75.1091H45.5375C45.7782 73.8656 46.5804 73.2639 47.8239 73.2639C48.7866 73.2639 50.0301 73.7052 50.0301 74.7882C50.0301 75.7108 49.5888 75.9916 48.8267 76.152C48.2414 76.278 47.5959 76.367 46.9324 76.4585C44.0035 76.8623 40.724 77.3145 40.724 81.2062C40.724 84.2146 42.8098 85.6185 45.4573 85.6185C47.1019 85.6185 48.8668 85.0971 50.0301 83.8135C50.0478 83.9196 50.0635 84.0239 50.079 84.1266C50.1338 84.4895 50.1858 84.8334 50.3108 85.1773H54.8435C54.3221 84.0542 54.3221 82.6903 54.3221 81.4469V75.069C54.3221 70.9374 51.1131 70.1753 47.8239 70.1753C46.2595 70.1753 44.655 70.4561 43.4115 71.1781ZM49.9097 78.3581C50.0301 81.3666 49.308 82.6502 47.142 82.6502C46.1392 82.6502 45.2567 82.2089 45.2166 81.0056C45.2166 79.8824 46.099 79.4011 47.1019 79.1604C47.4359 79.0669 47.7877 78.9956 48.1321 78.9258C48.8217 78.7861 49.4817 78.6524 49.9097 78.3581Z" fill="#FF9E18"/>
<rect x="56.5684" y="65.2014" width="4.5728" height="19.9759" fill="#FF9E18"/>
<path fill-rule="evenodd" clip-rule="evenodd" d="M86.2515 76.5934C86.6927 72.4218 84.1657 70.2156 80.355 70.2156C75.3009 70.2156 71.6506 74.1065 71.1292 79.2408C70.6879 83.4526 73.2952 85.4984 77.146 85.4984C82.2002 85.4984 85.7301 81.7278 86.2515 76.5934ZM81.6386 76.7941C81.3979 79.0002 80.1945 82.0087 77.5872 82.0087C75.9828 82.0087 75.5014 80.685 75.6619 79.0404C75.9025 77.0748 77.2262 73.7054 79.6731 73.7054C81.3578 73.7054 81.8392 74.989 81.6386 76.7941Z" fill="#FF9E18"/>
<path d="M71.9314 70.5364H69.1236V69.8946C69.1236 68.5709 69.7654 68.4104 70.8083 68.4104C71.2094 68.4104 71.6105 68.4505 72.0518 68.4907V65.0811C71.3298 65.041 70.5676 65.0009 69.8456 65.0009C65.9948 64.9608 64.5909 66.2845 64.5909 70.5364H62.3847V73.6651H64.5909V85.1774H69.1637V73.6651H70.8484L71.9314 70.5364Z" fill="#FF9E18"/>
<path d="M87.8159 82.2092V70.5766H92.2282V72.9432H92.2683C92.9502 71.1783 94.4745 70.2156 96.44 70.2156C96.7609 70.2156 97.0818 70.2557 97.4027 70.2958L97.2022 70.8975L95.9988 74.2268C95.9186 74.2268 95.8383 74.2268 95.7982 74.2268C93.5519 74.2268 92.3486 75.7912 92.3486 77.516V85.1775H87.7758V82.2092H87.8159Z" fill="#FF9E18"/>
<path fill-rule="evenodd" clip-rule="evenodd" d="M106.99 85.2176H111.322V65.001H106.749V72.141H106.709C105.786 70.8173 104.463 70.1354 102.738 70.1354C98.8067 70.1354 96.8813 73.7856 96.8813 77.5962C96.8813 81.7278 98.7265 85.6989 103.099 85.6989C104.743 85.6989 106.067 84.9769 106.949 83.573H106.99V85.2176ZM104.222 81.9685C102.136 81.9685 101.454 79.7222 101.454 77.7166C101.454 75.8714 102.136 73.7856 104.222 73.7856C106.187 73.7856 106.909 75.7511 106.909 77.877C106.909 79.7222 106.428 81.9685 104.222 81.9685Z" fill="#FF9E18"/>
<path d="M118.783 85.4582C116.456 85.4582 114.611 84.8164 112.886 83.6532L114.21 79.9227C115.654 80.9657 117.459 81.7278 118.783 81.7278C119.906 81.7278 120.427 81.3267 120.427 80.725C120.427 78.8798 113.568 80.003 113.568 75.0691C113.568 72.0607 116.095 70.0952 119.545 70.0952C121.31 70.0952 123.396 70.7771 124.84 71.5393L123.516 75.0691C122.072 74.2669 120.548 73.7454 119.344 73.7454C118.381 73.7454 117.9 74.1466 117.9 74.668C117.9 76.5533 125 75.39 125 80.6448C124.96 83.6933 122.272 85.4582 118.783 85.4582" fill="#FF9E18"/>
</svg>
