<svg width="150" height="150" viewBox="0 0 150 150" fill="none" xmlns="http://www.w3.org/2000/svg">
<path d="M57.8358 105.291C54.4317 105.291 51.0984 105.291 47.5524 105.291C47.5524 100.823 47.5524 96.3904 47.5524 91.816C43.4391 91.816 39.503 91.816 35.3542 91.816C35.3542 96.2485 35.3542 100.681 35.3542 105.255C31.8082 105.255 28.4749 105.255 25.0353 105.255C25.0353 93.6954 25.0353 82.2063 25.0353 70.54C28.3331 70.54 31.6663 70.54 35.2478 70.54C35.2478 74.6533 35.2478 78.8022 35.2478 83.0219C39.3966 83.0219 43.3327 83.0219 47.4815 83.0219C47.4815 78.8731 47.4815 74.7243 47.4815 70.5045C51.0275 70.5045 54.3608 70.5045 57.8358 70.5045C57.8358 82.0645 57.8358 93.6245 57.8358 105.291Z" fill="white"/>
<path d="M123.012 70.5042C123.012 73.341 123.012 76.036 123.012 78.9082C117.871 78.9082 112.871 78.9082 107.871 78.9082C104.502 78.9082 104.006 79.4401 104.006 82.8088C104.006 86.5676 104.041 90.3618 104.006 94.1206C104.006 95.5745 104.644 96.6737 106.063 96.7447C109.112 96.8865 112.162 96.7801 115.389 96.7801C115.389 92.6667 115.389 88.7661 115.389 84.6882C118.686 84.6882 121.771 84.6882 124.963 84.6882C124.679 102.525 125.034 87.0286 124.998 88.2342C124.927 92.9859 124.75 97.773 124.679 102.525C124.644 104.12 124.041 104.936 122.41 105.007C116.523 105.22 110.637 105.61 104.715 105.681C97.1266 105.787 93.4387 102.028 93.4387 94.4397C93.4387 89.6526 93.4387 84.901 93.4387 80.1139C93.4742 74.4757 96.4528 70.6815 102.091 70.1851C109.041 69.6177 115.991 70.3269 123.012 70.5042Z" fill="white"/>
<path d="M81.204 105.255C77.658 105.255 74.3247 105.255 70.7787 105.255C70.7787 96.5319 70.7787 87.8442 70.7787 78.9437C67.0909 78.9437 63.5803 78.9437 59.9634 78.9437C59.9634 76.0005 59.9634 73.2701 59.9634 70.4688C70.6369 70.4688 81.204 70.4688 91.8774 70.4688C91.8774 73.1992 91.8774 75.8941 91.8774 78.8373C88.4378 78.8373 84.9273 78.8373 81.204 78.8373C81.204 87.7733 81.204 96.461 81.204 105.255Z" fill="white"/>
<path d="M57.8715 44.2633C57.8715 48.5894 57.8715 52.8801 57.8715 57.2062C46.9143 57.2062 36.0635 57.2062 25 57.2062C25 52.9156 25 48.6604 25 44.2633C35.8508 44.2633 46.7725 44.2633 57.8715 44.2633Z" fill="#EC8204"/>
<path d="M93.4016 44.1576C96.5221 44.1221 99.6425 44.0158 102.763 44.0158C110.068 43.9803 117.373 44.0158 124.819 44.0158C124.819 48.4837 124.819 52.8099 124.819 57.3133C114.288 57.3133 103.791 57.3133 93.2952 57.3133C93.4725 57.0651 93.0469 57.9197 93.4015 57.2105C92.6214 53.0617 93.6853 48.271 93.4016 44.1576Z" fill="white"/>
<path d="M93.4034 44.1577C93.6871 48.271 93.4034 49.8454 93.3325 57.2779C93.5098 57.0651 92.8715 57.9871 93.3325 57.2779C89.361 57.2779 85.3894 57.2779 81.2406 57.2779C81.2406 52.9872 81.2406 48.9093 81.2406 44.8314C81.2406 44.1931 81.6307 44.0513 82.1626 44.0868C93.4034 44.1577 81.641 44.0868 92.5878 44.0868C92.8715 44.1222 93.1197 44.1222 93.4034 44.1577Z" fill="#0395D9"/>
</svg>
