<svg width="150" height="150" viewBox="0 0 150 150" fill="none" xmlns="http://www.w3.org/2000/svg">
<path d="M33.8453 113.881C35.517 113.714 36.8543 114.717 38.6931 114.55C38.6931 94.4901 38.6931 74.4302 38.6931 54.3704C42.2036 54.2032 45.5469 54.3704 48.5559 55.7077C53.4037 57.7137 54.4067 62.06 54.9082 66.5735C55.2426 68.7466 55.0754 71.0869 55.0754 73.4272C55.0754 85.296 55.0754 97.1648 55.0754 109.034C55.0754 109.702 55.0754 110.371 55.0754 111.207C56.5799 110.872 57.5829 110.204 58.753 109.535C59.756 109.034 59.2545 108.198 59.2545 107.362C59.2545 87.8035 59.2545 68.0779 59.2545 48.5196C59.2545 47.8509 59.0874 47.0151 59.4217 46.1792C62.5979 46.0121 65.9412 46.1792 68.9501 47.5166C74.2995 49.6897 75.1353 54.7047 75.4696 59.5525C76.1383 71.2541 75.6368 82.9557 75.8039 94.4901C75.8039 95.326 75.8039 96.1618 75.8039 96.9976C76.1383 96.9976 76.1383 96.9976 76.3054 96.9976C79.3144 94.9916 80.1503 92.317 79.9831 88.6393C79.8159 72.5914 79.8159 56.5435 79.8159 40.4956C79.8159 39.8269 79.8159 38.9911 79.8159 38.1553C84.9981 38.4896 90.1802 37.9881 93.6907 42.6687C95.6967 45.5106 96.031 48.8539 96.1982 52.1972C96.3653 58.048 96.3653 64.066 96.3653 69.9168C96.3653 70.5854 96.3653 71.2541 96.3653 71.9228C99.7087 68.4123 107.231 52.3644 106.73 40.4956C107.398 41.6658 107.398 42.8359 107.398 43.8389C107.565 52.3644 104.891 60.054 101.213 67.5764C94.025 81.9527 83.8279 93.9886 71.1233 103.684C63.768 109.201 55.9112 113.714 46.7171 115.553C42.538 116.389 38.3588 116.389 34.3468 114.55C34.514 114.55 33.8453 114.55 33.8453 113.881Z" fill="white"/>
<path d="M30 113.213C30.5015 113.045 30.6687 113.213 30.8358 113.38C35.6836 119.231 42.0359 119.732 48.8897 118.395C58.4182 116.556 66.6093 111.541 74.1318 105.69C86.0005 96.3288 95.6962 84.9615 102.717 71.5883C107.063 63.3972 110.072 54.8717 109.905 45.5104C109.738 41.8328 108.902 38.3223 106.729 35.1461C104.222 31.4685 100.544 29.7968 96.1977 29.2953C88.508 28.6267 81.6542 31.1342 74.9676 34.6446C74.4661 34.8118 73.9646 35.1461 73.6303 35.3133C73.4631 34.6446 74.1318 34.6446 74.6333 34.3103C81.8214 29.964 89.3439 26.2864 97.7021 25.2834C105.225 24.2804 112.078 25.7849 116.759 32.3043C120.437 37.3193 121.105 43.1701 120.604 49.0209C119.434 60.221 115.255 70.251 109.404 79.7794C100.377 94.1557 89.0095 106.359 74.6333 115.553C67.1108 120.401 59.0868 124.078 50.0599 124.914C41.8688 125.583 33.5105 122.407 30 113.213Z" fill="#7988A5"/>
<path d="M72.9621 35.6478C72.795 35.815 72.6278 35.815 72.2935 35.6478C72.6278 35.4807 72.795 35.4807 72.9621 35.6478Z" fill="#7988A5"/>
</svg>
