<svg width="150" height="150" viewBox="0 0 150 150" fill="none" xmlns="http://www.w3.org/2000/svg">
<path d="M105.171 101.866C71.1436 118.061 50.0257 104.511 36.5075 96.2818C35.671 95.7631 34.2492 96.403 35.4828 97.8199C39.9864 103.281 54.7457 116.442 74.0108 116.442C93.2891 116.442 104.758 105.923 106.193 104.088C107.618 102.269 106.611 101.265 105.171 101.866H105.171ZM114.728 96.5886C113.814 95.3987 109.171 95.1769 106.25 95.5358C103.323 95.8844 98.9309 97.6728 99.3128 98.7466C99.5087 99.1489 99.9087 98.9685 101.919 98.7877C103.935 98.5866 109.582 97.8739 110.758 99.4121C111.941 100.961 108.957 108.339 108.412 109.529C107.886 110.719 108.614 111.026 109.602 110.233C110.578 109.441 112.343 107.389 113.528 104.486C114.705 101.567 115.422 97.4946 114.727 96.5886H114.728Z" fill="#FF9900"/>
<path fill-rule="evenodd" clip-rule="evenodd" d="M82.2914 68.8221C82.2914 73.0712 82.3988 76.6148 80.2511 80.3883C78.5176 83.4565 75.7718 85.3433 72.7038 85.3433C68.5158 85.3433 66.0768 82.1525 66.0768 77.4432C66.0768 68.1469 74.4063 66.4597 82.2914 66.4597V68.8221ZM93.2901 95.4066C92.5691 96.0507 91.526 96.0969 90.7131 95.6672C87.0928 92.6607 86.4484 91.2648 84.4543 88.396C78.4717 94.5015 74.2378 96.3268 66.4758 96.3268C57.3024 96.3268 50.1538 90.6663 50.1538 79.33C50.1538 70.4789 54.9555 64.4501 61.7814 61.505C67.7029 58.8969 75.9713 58.4368 82.2914 57.716V56.3046C82.2914 53.712 82.4906 50.6441 80.9722 48.4045C79.6374 46.3949 77.091 45.5665 74.8512 45.5665C70.6942 45.5665 66.9818 47.6987 66.0768 52.1166C65.8925 53.0986 65.1717 54.0651 64.1901 54.111L53.6052 52.9761C52.7157 52.7762 51.734 52.0555 51.9794 50.69C54.4185 37.866 65.9998 34 76.3696 34C81.6774 34 88.611 35.4114 92.799 39.4306C98.1067 44.3853 97.6004 50.9968 97.6004 58.1914V75.1882C97.6004 80.2965 99.7173 82.536 101.711 85.2974C102.417 86.2791 102.571 87.4606 101.681 88.1965C99.4564 90.0525 95.4986 93.5043 93.3205 95.4373L93.2898 95.4066" fill="white"/>
<path d="M105.171 101.866C71.1436 118.061 50.0257 104.511 36.5075 96.2818C35.671 95.7631 34.2492 96.403 35.4828 97.8199C39.9864 103.281 54.7457 116.442 74.0108 116.442C93.2891 116.442 104.758 105.923 106.193 104.088C107.618 102.269 106.611 101.265 105.171 101.866H105.171ZM114.728 96.5886C113.814 95.3987 109.171 95.1769 106.25 95.5358C103.323 95.8844 98.9309 97.6728 99.3128 98.7466C99.5087 99.1489 99.9087 98.9685 101.919 98.7877C103.935 98.5866 109.582 97.8739 110.758 99.4121C111.941 100.961 108.957 108.339 108.412 109.529C107.886 110.719 108.614 111.026 109.602 110.233C110.578 109.441 112.343 107.389 113.528 104.486C114.705 101.567 115.422 97.4946 114.727 96.5886H114.728Z" fill="#FF9900"/>
<path fill-rule="evenodd" clip-rule="evenodd" d="M82.2914 68.8221C82.2914 73.0712 82.3988 76.6148 80.2511 80.3883C78.5176 83.4565 75.7718 85.3433 72.7038 85.3433C68.5158 85.3433 66.0768 82.1525 66.0768 77.4432C66.0768 68.1469 74.4063 66.4597 82.2914 66.4597V68.8221ZM93.2901 95.4066C92.5691 96.0507 91.526 96.0969 90.7131 95.6672C87.0928 92.6607 86.4484 91.2648 84.4543 88.396C78.4717 94.5015 74.2378 96.3268 66.4758 96.3268C57.3024 96.3268 50.1538 90.6663 50.1538 79.33C50.1538 70.4789 54.9555 64.4501 61.7814 61.505C67.7029 58.8969 75.9713 58.4368 82.2914 57.716V56.3046C82.2914 53.712 82.4906 50.6441 80.9722 48.4045C79.6374 46.3949 77.091 45.5665 74.8512 45.5665C70.6942 45.5665 66.9818 47.6987 66.0768 52.1166C65.8925 53.0986 65.1717 54.0651 64.1901 54.111L53.6052 52.9761C52.7157 52.7762 51.734 52.0555 51.9794 50.69C54.4185 37.866 65.9998 34 76.3696 34C81.6774 34 88.611 35.4114 92.799 39.4306C98.1067 44.3853 97.6004 50.9968 97.6004 58.1914V75.1882C97.6004 80.2965 99.7173 82.536 101.711 85.2974C102.417 86.2791 102.571 87.4606 101.681 88.1965C99.4564 90.0525 95.4986 93.5043 93.3205 95.4373L93.2898 95.4066" fill="white"/>
</svg>
